STARTFONT 2.1
FONT -farsitex-farsitex-medium-r-normal--16-80-100-100-c-80-fontspecific-0
SIZE 8 100 100
FONTBOUNDINGBOX 8 20 0 -8
STARTPROPERTIES 3
FONT_ASCENT 12
FONT_DESCENT 8
_XMBDFED_INFO "Edited with xmbdfed 4.5."
ENDPROPERTIES
CHARS 256
STARTCHAR 00
ENCODING 0
SWIDTH 720 0
DWIDTH 8 0
BBX 8 20 0 -8
BITMAP
00
1C
36
63
00
00
00
3E
63
63
6F
6F
6F
6E
60
3E
00
00
00
00
ENDCHAR
STARTCHAR 01
ENCODING 1
SWIDTH 720 0
DWIDTH 8 0
BBX 8 20 0 -8
BITMAP
00
1C
36
63
00
00
08
1C
36
63
63
7F
63
63
63
63
00
00
00
00
ENDCHAR
STARTCHAR 02
ENCODING 2
SWIDTH 720 0
DWIDTH 8 0
BBX 8 20 0 -8
BITMAP
00
1C
36
63
00
00
7E
33
33
33
3E
33
33
33
33
7E
00
00
00
00
ENDCHAR
STARTCHAR 03
ENCODING 3
SWIDTH 720 0
DWIDTH 8 0
BBX 8 20 0 -8
BITMAP
00
1C
36
63
00
00
1E
33
61
60
60
60
60
61
33
1E
00
00
00
00
ENDCHAR
STARTCHAR 04
ENCODING 4
SWIDTH 720 0
DWIDTH 8 0
BBX 8 20 0 -8
BITMAP
00
1C
36
63
00
00
7C
36
33
33
33
33
33
33
36
7C
00
00
00
00
ENDCHAR
STARTCHAR 05
ENCODING 5
SWIDTH 720 0
DWIDTH 8 0
BBX 8 20 0 -8
BITMAP
00
1C
36
63
00
00
7F
33
31
34
3C
34
30
31
33
7F
00
00
00
00
ENDCHAR
STARTCHAR 06
ENCODING 6
SWIDTH 720 0
DWIDTH 8 0
BBX 8 20 0 -8
BITMAP
00
1C
36
63
00
00
7F
33
31
34
3C
34
30
30
30
78
00
00
00
00
ENDCHAR
STARTCHAR 07
ENCODING 7
SWIDTH 720 0
DWIDTH 8 0
BBX 8 20 0 -8
BITMAP
00
1C
36
63
00
00
1E
33
61
60
60
6F
63
63
33
1D
00
00
00
00
ENDCHAR
STARTCHAR 08
ENCODING 8
SWIDTH 720 0
DWIDTH 8 0
BBX 8 20 0 -8
BITMAP
00
1C
36
63
00
00
63
63
63
63
7F
63
63
63
63
63
00
00
00
00
ENDCHAR
STARTCHAR 09
ENCODING 9
SWIDTH 720 0
DWIDTH 8 0
BBX 8 20 0 -8
BITMAP
00
1C
36
63
00
00
3C
18
18
18
18
18
18
18
18
3C
00
00
00
00
ENDCHAR
STARTCHAR 0A
ENCODING 10
SWIDTH 720 0
DWIDTH 8 0
BBX 8 20 0 -8
BITMAP
00
1C
36
63
00
00
0F
06
06
06
06
06
66
66
66
3C
00
00
00
00
ENDCHAR
STARTCHAR 0B
ENCODING 11
SWIDTH 720 0
DWIDTH 8 0
BBX 8 20 0 -8
BITMAP
00
1C
36
63
00
00
73
33
36
36
3C
3C
36
33
33
73
00
00
00
00
ENDCHAR
STARTCHAR 0C
ENCODING 12
SWIDTH 720 0
DWIDTH 8 0
BBX 8 20 0 -8
BITMAP
00
1C
36
63
00
00
78
30
30
30
30
30
30
31
33
7F
00
00
00
00
ENDCHAR
STARTCHAR 0D
ENCODING 13
SWIDTH 720 0
DWIDTH 8 0
BBX 8 20 0 -8
BITMAP
00
1C
36
63
00
00
63
77
7F
7F
6B
63
63
63
63
63
00
00
00
00
ENDCHAR
STARTCHAR 0E
ENCODING 14
SWIDTH 720 0
DWIDTH 8 0
BBX 8 20 0 -8
BITMAP
00
1C
36
63
00
00
63
73
7B
7F
6F
67
63
63
63
63
00
00
00
00
ENDCHAR
STARTCHAR 0F
ENCODING 15
SWIDTH 720 0
DWIDTH 8 0
BBX 8 20 0 -8
BITMAP
00
1C
36
63
00
00
1C
36
63
63
63
63
63
63
36
1C
00
00
00
00
ENDCHAR
STARTCHAR 10
ENCODING 16
SWIDTH 720 0
DWIDTH 8 0
BBX 8 20 0 -8
BITMAP
00
1C
36
63
00
00
7E
33
33
33
3E
30
30
30
30
78
00
00
00
00
ENDCHAR
STARTCHAR 11
ENCODING 17
SWIDTH 720 0
DWIDTH 8 0
BBX 8 20 0 -8
BITMAP
00
1C
36
63
00
00
3E
63
63
63
63
63
63
6B
6F
3E
06
07
00
00
ENDCHAR
STARTCHAR 12
ENCODING 18
SWIDTH 720 0
DWIDTH 8 0
BBX 8 20 0 -8
BITMAP
00
1C
36
63
00
00
7E
33
33
33
3E
36
33
33
33
73
00
00
00
00
ENDCHAR
STARTCHAR 13
ENCODING 19
SWIDTH 720 0
DWIDTH 8 0
BBX 8 20 0 -8
BITMAP
00
1C
36
63
00
00
3E
63
63
30
1C
06
03
63
63
3E
00
00
00
00
ENDCHAR
STARTCHAR 14
ENCODING 20
SWIDTH 720 0
DWIDTH 8 0
BBX 8 20 0 -8
BITMAP
00
1C
36
63
00
00
7E
7E
5A
18
18
18
18
18
18
3C
00
00
00
00
ENDCHAR
STARTCHAR 15
ENCODING 21
SWIDTH 720 0
DWIDTH 8 0
BBX 8 20 0 -8
BITMAP
00
1C
36
63
00
00
63
63
63
63
63
63
63
63
63
3E
00
00
00
00
ENDCHAR
STARTCHAR 16
ENCODING 22
SWIDTH 720 0
DWIDTH 8 0
BBX 8 20 0 -8
BITMAP
00
1C
36
63
00
00
63
63
63
63
63
63
63
36
1C
08
00
00
00
00
ENDCHAR
STARTCHAR 17
ENCODING 23
SWIDTH 720 0
DWIDTH 8 0
BBX 8 20 0 -8
BITMAP
00
1C
36
63
00
00
63
63
63
63
63
6B
6B
7F
36
36
00
00
00
00
ENDCHAR
STARTCHAR 18
ENCODING 24
SWIDTH 720 0
DWIDTH 8 0
BBX 8 20 0 -8
BITMAP
00
1C
36
63
00
00
63
63
36
36
1C
1C
36
36
63
63
00
00
00
00
ENDCHAR
STARTCHAR 19
ENCODING 25
SWIDTH 720 0
DWIDTH 8 0
BBX 8 20 0 -8
BITMAP
00
1C
36
63
00
00
66
66
66
66
3C
18
18
18
18
3C
00
00
00
00
ENDCHAR
STARTCHAR 1A
ENCODING 26
SWIDTH 720 0
DWIDTH 8 0
BBX 8 20 0 -8
BITMAP
00
1C
36
63
00
00
7F
63
43
06
0C
18
30
61
63
7F
00
00
00
00
ENDCHAR
STARTCHAR 1B
ENCODING 27
SWIDTH 720 0
DWIDTH 8 0
BBX 8 20 0 -8
BITMAP
00
1C
36
63
00
00
3C
30
30
30
30
30
30
30
30
3C
00
00
00
00
ENDCHAR
STARTCHAR 1C
ENCODING 28
SWIDTH 720 0
DWIDTH 8 0
BBX 8 20 0 -8
BITMAP
00
1C
36
63
00
00
00
40
60
70
38
1C
0E
07
03
01
00
00
00
00
ENDCHAR
STARTCHAR 1D
ENCODING 29
SWIDTH 720 0
DWIDTH 8 0
BBX 8 20 0 -8
BITMAP
00
1C
36
63
00
00
3C
0C
0C
0C
0C
0C
0C
0C
0C
3C
00
00
00
00
ENDCHAR
STARTCHAR 1E
ENCODING 30
SWIDTH 720 0
DWIDTH 8 0
BBX 8 20 0 -8
BITMAP
00
1C
36
63
08
1C
36
63
00
00
00
00
00
00
00
00
00
00
00
00
ENDCHAR
STARTCHAR 1F
ENCODING 31
SWIDTH 720 0
DWIDTH 8 0
BBX 8 20 0 -8
BITMAP
00
1C
36
63
00
00
00
00
00
00
00
00
00
00
00
00
00
FF
00
00
ENDCHAR
STARTCHAR 20
ENCODING 32
SWIDTH 720 0
DWIDTH 8 0
BBX 8 20 0 -8
BITMAP
00
00
00
00
00
00
00
00
00
00
00
00
00
00
00
00
00
00
00
00
ENDCHAR
STARTCHAR 21
ENCODING 33
SWIDTH 720 0
DWIDTH 8 0
BBX 8 20 0 -8
BITMAP
00
00
18
3C
3C
3C
18
18
18
00
18
18
00
00
00
00
00
00
00
00
ENDCHAR
STARTCHAR 22
ENCODING 34
SWIDTH 720 0
DWIDTH 8 0
BBX 8 20 0 -8
BITMAP
00
66
66
66
24
00
00
00
00
00
00
00
00
00
00
00
00
00
00
00
ENDCHAR
STARTCHAR 23
ENCODING 35
SWIDTH 720 0
DWIDTH 8 0
BBX 8 20 0 -8
BITMAP
00
00
00
36
36
7F
36
36
36
7F
36
36
00
00
00
00
00
00
00
00
ENDCHAR
STARTCHAR 24
ENCODING 36
SWIDTH 720 0
DWIDTH 8 0
BBX 8 20 0 -8
BITMAP
0C
0C
3E
63
61
60
3E
03
43
63
3E
0C
0C
00
00
00
00
00
00
00
ENDCHAR
STARTCHAR 25
ENCODING 37
SWIDTH 720 0
DWIDTH 8 0
BBX 8 20 0 -8
BITMAP
00
00
00
00
61
63
06
0C
18
30
63
43
00
00
00
00
00
00
00
00
ENDCHAR
STARTCHAR 26
ENCODING 38
SWIDTH 720 0
DWIDTH 8 0
BBX 8 20 0 -8
BITMAP
00
00
1C
36
36
1C
3B
6E
66
66
66
3B
00
00
00
00
00
00
00
00
ENDCHAR
STARTCHAR 27
ENCODING 39
SWIDTH 720 0
DWIDTH 8 0
BBX 8 20 0 -8
BITMAP
00
18
18
18
30
00
00
00
00
00
00
00
00
00
00
00
00
00
00
00
ENDCHAR
STARTCHAR 28
ENCODING 40
SWIDTH 720 0
DWIDTH 8 0
BBX 8 20 0 -8
BITMAP
00
00
0C
18
30
30
30
30
30
30
18
0C
00
00
00
00
00
00
00
00
ENDCHAR
STARTCHAR 29
ENCODING 41
SWIDTH 720 0
DWIDTH 8 0
BBX 8 20 0 -8
BITMAP
00
00
30
18
0C
0C
0C
0C
0C
0C
18
30
00
00
00
00
00
00
00
00
ENDCHAR
STARTCHAR 2A
ENCODING 42
SWIDTH 720 0
DWIDTH 8 0
BBX 8 20 0 -8
BITMAP
00
00
00
00
00
66
3C
FF
3C
66
00
00
00
00
00
00
00
00
00
00
ENDCHAR
STARTCHAR 2B
ENCODING 43
SWIDTH 720 0
DWIDTH 8 0
BBX 8 20 0 -8
BITMAP
00
00
00
00
00
18
18
7E
18
18
00
00
00
00
00
00
00
00
00
00
ENDCHAR
STARTCHAR 2C
ENCODING 44
SWIDTH 720 0
DWIDTH 8 0
BBX 8 20 0 -8
BITMAP
00
00
00
00
00
00
00
00
00
18
18
18
30
00
00
00
00
00
00
00
ENDCHAR
STARTCHAR 2D
ENCODING 45
SWIDTH 720 0
DWIDTH 8 0
BBX 8 20 0 -8
BITMAP
00
00
00
00
00
00
00
7F
00
00
00
00
00
00
00
00
00
00
00
00
ENDCHAR
STARTCHAR 2E
ENCODING 46
SWIDTH 720 0
DWIDTH 8 0
BBX 8 20 0 -8
BITMAP
00
00
00
00
00
00
00
00
00
00
18
18
00
00
00
00
00
00
00
00
ENDCHAR
STARTCHAR 2F
ENCODING 47
SWIDTH 720 0
DWIDTH 8 0
BBX 8 20 0 -8
BITMAP
00
00
00
00
01
03
06
0C
18
30
60
40
00
00
00
00
00
00
00
00
ENDCHAR
STARTCHAR 30
ENCODING 48
SWIDTH 720 0
DWIDTH 8 0
BBX 8 20 0 -8
BITMAP
00
00
3E
63
63
63
6B
6B
63
63
63
3E
00
00
00
00
00
00
00
00
ENDCHAR
STARTCHAR 31
ENCODING 49
SWIDTH 720 0
DWIDTH 8 0
BBX 8 20 0 -8
BITMAP
00
00
0C
1C
3C
0C
0C
0C
0C
0C
0C
3F
00
00
00
00
00
00
00
00
ENDCHAR
STARTCHAR 32
ENCODING 50
SWIDTH 720 0
DWIDTH 8 0
BBX 8 20 0 -8
BITMAP
00
00
3E
63
03
06
0C
18
30
60
63
7F
00
00
00
00
00
00
00
00
ENDCHAR
STARTCHAR 33
ENCODING 51
SWIDTH 720 0
DWIDTH 8 0
BBX 8 20 0 -8
BITMAP
00
00
3E
63
03
03
1E
03
03
03
63
3E
00
00
00
00
00
00
00
00
ENDCHAR
STARTCHAR 34
ENCODING 52
SWIDTH 720 0
DWIDTH 8 0
BBX 8 20 0 -8
BITMAP
00
00
06
0E
1E
36
66
7F
06
06
06
0F
00
00
00
00
00
00
00
00
ENDCHAR
STARTCHAR 35
ENCODING 53
SWIDTH 720 0
DWIDTH 8 0
BBX 8 20 0 -8
BITMAP
00
00
7F
60
60
60
7E
07
03
03
63
3E
00
00
00
00
00
00
00
00
ENDCHAR
STARTCHAR 36
ENCODING 54
SWIDTH 720 0
DWIDTH 8 0
BBX 8 20 0 -8
BITMAP
00
00
1C
30
60
60
7E
63
63
63
63
3E
00
00
00
00
00
00
00
00
ENDCHAR
STARTCHAR 37
ENCODING 55
SWIDTH 720 0
DWIDTH 8 0
BBX 8 20 0 -8
BITMAP
00
00
7F
63
03
03
06
0C
18
18
18
18
00
00
00
00
00
00
00
00
ENDCHAR
STARTCHAR 38
ENCODING 56
SWIDTH 720 0
DWIDTH 8 0
BBX 8 20 0 -8
BITMAP
00
00
3E
63
63
63
3E
63
63
63
63
3E
00
00
00
00
00
00
00
00
ENDCHAR
STARTCHAR 39
ENCODING 57
SWIDTH 720 0
DWIDTH 8 0
BBX 8 20 0 -8
BITMAP
00
00
3E
63
63
63
3F
03
03
03
06
3C
00
00
00
00
00
00
00
00
ENDCHAR
STARTCHAR 3A
ENCODING 58
SWIDTH 720 0
DWIDTH 8 0
BBX 8 20 0 -8
BITMAP
00
00
00
00
18
18
00
00
00
18
18
00
00
00
00
00
00
00
00
00
ENDCHAR
STARTCHAR 3B
ENCODING 59
SWIDTH 720 0
DWIDTH 8 0
BBX 8 20 0 -8
BITMAP
00
00
00
00
18
18
00
00
00
18
18
30
00
00
00
00
00
00
00
00
ENDCHAR
STARTCHAR 3C
ENCODING 60
SWIDTH 720 0
DWIDTH 8 0
BBX 8 20 0 -8
BITMAP
00
00
00
06
0C
18
30
60
30
18
0C
06
00
00
00
00
00
00
00
00
ENDCHAR
STARTCHAR 3D
ENCODING 61
SWIDTH 720 0
DWIDTH 8 0
BBX 8 20 0 -8
BITMAP
00
00
00
00
00
00
7F
00
00
7F
00
00
00
00
00
00
00
00
00
00
ENDCHAR
STARTCHAR 3E
ENCODING 62
SWIDTH 720 0
DWIDTH 8 0
BBX 8 20 0 -8
BITMAP
00
00
00
60
30
18
0C
06
0C
18
30
60
00
00
00
00
00
00
00
00
ENDCHAR
STARTCHAR 3F
ENCODING 63
SWIDTH 720 0
DWIDTH 8 0
BBX 8 20 0 -8
BITMAP
00
00
3E
63
63
06
0C
0C
0C
00
0C
0C
00
00
00
00
00
00
00
00
ENDCHAR
STARTCHAR 40
ENCODING 64
SWIDTH 720 0
DWIDTH 8 0
BBX 8 20 0 -8
BITMAP
00
00
00
3E
63
63
6F
6F
6F
6E
60
3E
00
00
00
00
00
00
00
00
ENDCHAR
STARTCHAR 41
ENCODING 65
SWIDTH 720 0
DWIDTH 8 0
BBX 8 20 0 -8
BITMAP
00
00
08
1C
36
63
63
7F
63
63
63
63
00
00
00
00
00
00
00
00
ENDCHAR
STARTCHAR 42
ENCODING 66
SWIDTH 720 0
DWIDTH 8 0
BBX 8 20 0 -8
BITMAP
00
00
7E
33
33
33
3E
33
33
33
33
7E
00
00
00
00
00
00
00
00
ENDCHAR
STARTCHAR 43
ENCODING 67
SWIDTH 720 0
DWIDTH 8 0
BBX 8 20 0 -8
BITMAP
00
00
1E
33
61
60
60
60
60
61
33
1E
00
00
00
00
00
00
00
00
ENDCHAR
STARTCHAR 44
ENCODING 68
SWIDTH 720 0
DWIDTH 8 0
BBX 8 20 0 -8
BITMAP
00
00
7C
36
33
33
33
33
33
33
36
7C
00
00
00
00
00
00
00
00
ENDCHAR
STARTCHAR 45
ENCODING 69
SWIDTH 720 0
DWIDTH 8 0
BBX 8 20 0 -8
BITMAP
00
00
7F
33
31
34
3C
34
30
31
33
7F
00
00
00
00
00
00
00
00
ENDCHAR
STARTCHAR 46
ENCODING 70
SWIDTH 720 0
DWIDTH 8 0
BBX 8 20 0 -8
BITMAP
00
00
7F
33
31
34
3C
34
30
30
30
78
00
00
00
00
00
00
00
00
ENDCHAR
STARTCHAR 47
ENCODING 71
SWIDTH 720 0
DWIDTH 8 0
BBX 8 20 0 -8
BITMAP
00
00
1E
33
61
60
60
6F
63
63
33
1D
00
00
00
00
00
00
00
00
ENDCHAR
STARTCHAR 48
ENCODING 72
SWIDTH 720 0
DWIDTH 8 0
BBX 8 20 0 -8
BITMAP
00
00
63
63
63
63
7F
63
63
63
63
63
00
00
00
00
00
00
00
00
ENDCHAR
STARTCHAR 49
ENCODING 73
SWIDTH 720 0
DWIDTH 8 0
BBX 8 20 0 -8
BITMAP
00
00
3C
18
18
18
18
18
18
18
18
3C
00
00
00
00
00
00
00
00
ENDCHAR
STARTCHAR 4A
ENCODING 74
SWIDTH 720 0
DWIDTH 8 0
BBX 8 20 0 -8
BITMAP
00
00
0F
06
06
06
06
06
66
66
66
3C
00
00
00
00
00
00
00
00
ENDCHAR
STARTCHAR 4B
ENCODING 75
SWIDTH 720 0
DWIDTH 8 0
BBX 8 20 0 -8
BITMAP
00
00
73
33
36
36
3C
3C
36
33
33
73
00
00
00
00
00
00
00
00
ENDCHAR
STARTCHAR 4C
ENCODING 76
SWIDTH 720 0
DWIDTH 8 0
BBX 8 20 0 -8
BITMAP
00
00
78
30
30
30
30
30
30
31
33
7F
00
00
00
00
00
00
00
00
ENDCHAR
STARTCHAR 4D
ENCODING 77
SWIDTH 720 0
DWIDTH 8 0
BBX 8 20 0 -8
BITMAP
00
00
63
77
7F
7F
6B
63
63
63
63
63
00
00
00
00
00
00
00
00
ENDCHAR
STARTCHAR 4E
ENCODING 78
SWIDTH 720 0
DWIDTH 8 0
BBX 8 20 0 -8
BITMAP
00
00
63
73
7B
7F
6F
67
63
63
63
63
00
00
00
00
00
00
00
00
ENDCHAR
STARTCHAR 4F
ENCODING 79
SWIDTH 720 0
DWIDTH 8 0
BBX 8 20 0 -8
BITMAP
00
00
1C
36
63
63
63
63
63
63
36
1C
00
00
00
00
00
00
00
00
ENDCHAR
STARTCHAR 50
ENCODING 80
SWIDTH 720 0
DWIDTH 8 0
BBX 8 20 0 -8
BITMAP
00
00
7E
33
33
33
3E
30
30
30
30
78
00
00
00
00
00
00
00
00
ENDCHAR
STARTCHAR 51
ENCODING 81
SWIDTH 720 0
DWIDTH 8 0
BBX 8 20 0 -8
BITMAP
00
00
3E
63
63
63
63
63
63
6B
6F
3E
06
07
00
00
00
00
00
00
ENDCHAR
STARTCHAR 52
ENCODING 82
SWIDTH 720 0
DWIDTH 8 0
BBX 8 20 0 -8
BITMAP
00
00
7E
33
33
33
3E
36
33
33
33
73
00
00
00
00
00
00
00
00
ENDCHAR
STARTCHAR 53
ENCODING 83
SWIDTH 720 0
DWIDTH 8 0
BBX 8 20 0 -8
BITMAP
00
00
3E
63
63
30
1C
06
03
63
63
3E
00
00
00
00
00
00
00
00
ENDCHAR
STARTCHAR 54
ENCODING 84
SWIDTH 720 0
DWIDTH 8 0
BBX 8 20 0 -8
BITMAP
00
00
7E
7E
5A
18
18
18
18
18
18
3C
00
00
00
00
00
00
00
00
ENDCHAR
STARTCHAR 55
ENCODING 85
SWIDTH 720 0
DWIDTH 8 0
BBX 8 20 0 -8
BITMAP
00
00
63
63
63
63
63
63
63
63
63
3E
00
00
00
00
00
00
00
00
ENDCHAR
STARTCHAR 56
ENCODING 86
SWIDTH 720 0
DWIDTH 8 0
BBX 8 20 0 -8
BITMAP
00
00
63
63
63
63
63
63
63
36
1C
08
00
00
00
00
00
00
00
00
ENDCHAR
STARTCHAR 57
ENCODING 87
SWIDTH 720 0
DWIDTH 8 0
BBX 8 20 0 -8
BITMAP
00
00
63
63
63
63
63
6B
6B
7F
36
36
00
00
00
00
00
00
00
00
ENDCHAR
STARTCHAR 58
ENCODING 88
SWIDTH 720 0
DWIDTH 8 0
BBX 8 20 0 -8
BITMAP
00
00
63
63
36
36
1C
1C
36
36
63
63
00
00
00
00
00
00
00
00
ENDCHAR
STARTCHAR 59
ENCODING 89
SWIDTH 720 0
DWIDTH 8 0
BBX 8 20 0 -8
BITMAP
00
00
66
66
66
66
3C
18
18
18
18
3C
00
00
00
00
00
00
00
00
ENDCHAR
STARTCHAR 5A
ENCODING 90
SWIDTH 720 0
DWIDTH 8 0
BBX 8 20 0 -8
BITMAP
00
00
7F
63
43
06
0C
18
30
61
63
7F
00
00
00
00
00
00
00
00
ENDCHAR
STARTCHAR 5B
ENCODING 91
SWIDTH 720 0
DWIDTH 8 0
BBX 8 20 0 -8
BITMAP
00
00
3C
30
30
30
30
30
30
30
30
3C
00
00
00
00
00
00
00
00
ENDCHAR
STARTCHAR 5C
ENCODING 92
SWIDTH 720 0
DWIDTH 8 0
BBX 8 20 0 -8
BITMAP
00
00
00
40
60
70
38
1C
0E
07
03
01
00
00
00
00
00
00
00
00
ENDCHAR
STARTCHAR 5D
ENCODING 93
SWIDTH 720 0
DWIDTH 8 0
BBX 8 20 0 -8
BITMAP
00
00
3C
0C
0C
0C
0C
0C
0C
0C
0C
3C
00
00
00
00
00
00
00
00
ENDCHAR
STARTCHAR 5E
ENCODING 94
SWIDTH 720 0
DWIDTH 8 0
BBX 8 20 0 -8
BITMAP
08
1C
36
63
00
00
00
00
00
00
00
00
00
00
00
00
00
00
00
00
ENDCHAR
STARTCHAR 5F
ENCODING 95
SWIDTH 720 0
DWIDTH 8 0
BBX 8 20 0 -8
BITMAP
00
00
00
00
00
00
00
00
00
00
00
00
00
FF
00
00
00
00
00
00
ENDCHAR
STARTCHAR 60
ENCODING 96
SWIDTH 720 0
DWIDTH 8 0
BBX 8 20 0 -8
BITMAP
18
18
0C
00
00
00
00
00
00
00
00
00
00
00
00
00
00
00
00
00
ENDCHAR
STARTCHAR 61
ENCODING 97
SWIDTH 720 0
DWIDTH 8 0
BBX 8 20 0 -8
BITMAP
00
00
00
00
00
3C
06
3E
66
66
66
3B
00
00
00
00
00
00
00
00
ENDCHAR
STARTCHAR 62
ENCODING 98
SWIDTH 720 0
DWIDTH 8 0
BBX 8 20 0 -8
BITMAP
00
00
70
30
30
3C
36
33
33
33
33
6E
00
00
00
00
00
00
00
00
ENDCHAR
STARTCHAR 63
ENCODING 99
SWIDTH 720 0
DWIDTH 8 0
BBX 8 20 0 -8
BITMAP
00
00
00
00
00
3E
63
60
60
60
63
3E
00
00
00
00
00
00
00
00
ENDCHAR
STARTCHAR 64
ENCODING 100
SWIDTH 720 0
DWIDTH 8 0
BBX 8 20 0 -8
BITMAP
00
00
0E
06
06
1E
36
66
66
66
66
3B
00
00
00
00
00
00
00
00
ENDCHAR
STARTCHAR 65
ENCODING 101
SWIDTH 720 0
DWIDTH 8 0
BBX 8 20 0 -8
BITMAP
00
00
00
00
00
3E
63
7F
60
60
63
3E
00
00
00
00
00
00
00
00
ENDCHAR
STARTCHAR 66
ENCODING 102
SWIDTH 720 0
DWIDTH 8 0
BBX 8 20 0 -8
BITMAP
00
00
1C
36
32
30
78
30
30
30
30
78
00
00
00
00
00
00
00
00
ENDCHAR
STARTCHAR 67
ENCODING 103
SWIDTH 720 0
DWIDTH 8 0
BBX 8 20 0 -8
BITMAP
00
00
00
00
00
3B
66
66
66
66
66
3E
06
66
3C
00
00
00
00
00
ENDCHAR
STARTCHAR 68
ENCODING 104
SWIDTH 720 0
DWIDTH 8 0
BBX 8 20 0 -8
BITMAP
00
00
70
30
30
36
3B
33
33
33
33
73
00
00
00
00
00
00
00
00
ENDCHAR
STARTCHAR 69
ENCODING 105
SWIDTH 720 0
DWIDTH 8 0
BBX 8 20 0 -8
BITMAP
00
00
18
18
00
38
18
18
18
18
18
3C
00
00
00
00
00
00
00
00
ENDCHAR
STARTCHAR 6A
ENCODING 106
SWIDTH 720 0
DWIDTH 8 0
BBX 8 20 0 -8
BITMAP
00
00
06
06
00
0E
06
06
06
06
06
06
66
66
3C
00
00
00
00
00
ENDCHAR
STARTCHAR 6B
ENCODING 107
SWIDTH 720 0
DWIDTH 8 0
BBX 8 20 0 -8
BITMAP
00
00
70
30
30
33
36
3C
3C
36
33
73
00
00
00
00
00
00
00
00
ENDCHAR
STARTCHAR 6C
ENCODING 108
SWIDTH 720 0
DWIDTH 8 0
BBX 8 20 0 -8
BITMAP
00
00
38
18
18
18
18
18
18
18
18
3C
00
00
00
00
00
00
00
00
ENDCHAR
STARTCHAR 6D
ENCODING 109
SWIDTH 720 0
DWIDTH 8 0
BBX 8 20 0 -8
BITMAP
00
00
00
00
00
76
7F
6B
6B
6B
6B
6B
00
00
00
00
00
00
00
00
ENDCHAR
STARTCHAR 6E
ENCODING 110
SWIDTH 720 0
DWIDTH 8 0
BBX 8 20 0 -8
BITMAP
00
00
00
00
00
6E
33
33
33
33
33
33
00
00
00
00
00
00
00
00
ENDCHAR
STARTCHAR 6F
ENCODING 111
SWIDTH 720 0
DWIDTH 8 0
BBX 8 20 0 -8
BITMAP
00
00
00
00
00
3E
63
63
63
63
63
3E
00
00
00
00
00
00
00
00
ENDCHAR
STARTCHAR 70
ENCODING 112
SWIDTH 720 0
DWIDTH 8 0
BBX 8 20 0 -8
BITMAP
00
00
00
00
00
6E
33
33
33
33
33
3E
30
30
78
00
00
00
00
00
ENDCHAR
STARTCHAR 71
ENCODING 113
SWIDTH 720 0
DWIDTH 8 0
BBX 8 20 0 -8
BITMAP
00
00
00
00
00
3B
66
66
66
66
66
3E
06
06
0F
00
00
00
00
00
ENDCHAR
STARTCHAR 72
ENCODING 114
SWIDTH 720 0
DWIDTH 8 0
BBX 8 20 0 -8
BITMAP
00
00
00
00
00
6E
3B
31
30
30
30
78
00
00
00
00
00
00
00
00
ENDCHAR
STARTCHAR 73
ENCODING 115
SWIDTH 720 0
DWIDTH 8 0
BBX 8 20 0 -8
BITMAP
00
00
00
00
00
3E
63
30
1C
06
63
3E
00
00
00
00
00
00
00
00
ENDCHAR
STARTCHAR 74
ENCODING 116
SWIDTH 720 0
DWIDTH 8 0
BBX 8 20 0 -8
BITMAP
00
00
08
18
18
7E
18
18
18
18
1B
0E
00
00
00
00
00
00
00
00
ENDCHAR
STARTCHAR 75
ENCODING 117
SWIDTH 720 0
DWIDTH 8 0
BBX 8 20 0 -8
BITMAP
00
00
00
00
00
66
66
66
66
66
66
3B
00
00
00
00
00
00
00
00
ENDCHAR
STARTCHAR 76
ENCODING 118
SWIDTH 720 0
DWIDTH 8 0
BBX 8 20 0 -8
BITMAP
00
00
00
00
00
66
66
66
66
66
3C
18
00
00
00
00
00
00
00
00
ENDCHAR
STARTCHAR 77
ENCODING 119
SWIDTH 720 0
DWIDTH 8 0
BBX 8 20 0 -8
BITMAP
00
00
00
00
00
63
63
63
6B
6B
7F
36
00
00
00
00
00
00
00
00
ENDCHAR
STARTCHAR 78
ENCODING 120
SWIDTH 720 0
DWIDTH 8 0
BBX 8 20 0 -8
BITMAP
00
00
00
00
00
63
36
1C
1C
1C
36
63
00
00
00
00
00
00
00
00
ENDCHAR
STARTCHAR 79
ENCODING 121
SWIDTH 720 0
DWIDTH 8 0
BBX 8 20 0 -8
BITMAP
00
00
00
00
00
63
63
63
63
63
63
3F
03
06
7C
00
00
00
00
00
ENDCHAR
STARTCHAR 7A
ENCODING 122
SWIDTH 720 0
DWIDTH 8 0
BBX 8 20 0 -8
BITMAP
00
00
00
00
00
7F
66
0C
18
30
63
7F
00
00
00
00
00
00
00
00
ENDCHAR
STARTCHAR 7B
ENCODING 123
SWIDTH 720 0
DWIDTH 8 0
BBX 8 20 0 -8
BITMAP
00
00
0E
18
18
18
70
18
18
18
18
0E
00
00
00
00
00
00
00
00
ENDCHAR
STARTCHAR 7C
ENCODING 124
SWIDTH 720 0
DWIDTH 8 0
BBX 8 20 0 -8
BITMAP
00
00
18
18
18
18
00
18
18
18
18
18
00
00
00
00
00
00
00
00
ENDCHAR
STARTCHAR 7D
ENCODING 125
SWIDTH 720 0
DWIDTH 8 0
BBX 8 20 0 -8
BITMAP
00
00
70
18
18
18
0E
18
18
18
18
70
00
00
00
00
00
00
00
00
ENDCHAR
STARTCHAR 7E
ENCODING 126
SWIDTH 720 0
DWIDTH 8 0
BBX 8 20 0 -8
BITMAP
00
00
3B
6E
00
00
00
00
00
00
00
00
00
00
00
00
00
00
00
00
ENDCHAR
STARTCHAR 7F
ENCODING 127
SWIDTH 720 0
DWIDTH 8 0
BBX 8 20 0 -8
BITMAP
00
00
00
00
08
1C
36
63
63
63
7F
00
00
00
00
00
00
00
00
00
ENDCHAR
STARTCHAR 80
ENCODING 128
SWIDTH 720 0
DWIDTH 8 0
BBX 8 20 0 -8
BITMAP
00
00
00
00
00
00
08
1C
08
00
00
00
00
00
00
00
00
00
00
00
ENDCHAR
STARTCHAR 81
ENCODING 129
SWIDTH 720 0
DWIDTH 8 0
BBX 8 20 0 -8
BITMAP
00
00
20
30
38
18
0C
0C
04
04
04
04
00
00
00
00
00
00
00
00
ENDCHAR
STARTCHAR 82
ENCODING 130
SWIDTH 720 0
DWIDTH 8 0
BBX 8 20 0 -8
BITMAP
00
00
42
7E
7C
30
18
18
08
08
08
08
00
00
00
00
00
00
00
00
ENDCHAR
STARTCHAR 83
ENCODING 131
SWIDTH 720 0
DWIDTH 8 0
BBX 8 20 0 -8
BITMAP
00
00
49
7F
76
30
18
18
08
08
08
08
00
00
00
00
00
00
00
00
ENDCHAR
STARTCHAR 84
ENCODING 132
SWIDTH 720 0
DWIDTH 8 0
BBX 8 20 0 -8
BITMAP
00
06
48
79
7E
30
18
18
08
08
08
08
00
00
00
00
00
00
00
00
ENDCHAR
STARTCHAR 85
ENCODING 133
SWIDTH 720 0
DWIDTH 8 0
BBX 8 20 0 -8
BITMAP
00
00
00
08
08
0C
16
23
41
49
7F
36
00
00
00
00
00
00
00
00
ENDCHAR
STARTCHAR 86
ENCODING 134
SWIDTH 720 0
DWIDTH 8 0
BBX 8 20 0 -8
BITMAP
00
00
00
0E
10
30
3F
1E
18
30
20
40
00
00
00
00
00
00
00
00
ENDCHAR
STARTCHAR 87
ENCODING 135
SWIDTH 720 0
DWIDTH 8 0
BBX 8 20 0 -8
BITMAP
00
00
41
41
63
36
1C
1C
08
08
08
08
00
00
00
00
00
00
00
00
ENDCHAR
STARTCHAR 88
ENCODING 136
SWIDTH 720 0
DWIDTH 8 0
BBX 8 20 0 -8
BITMAP
00
00
08
08
08
08
1C
1C
36
63
41
41
00
00
00
00
00
00
00
00
ENDCHAR
STARTCHAR 89
ENCODING 137
SWIDTH 720 0
DWIDTH 8 0
BBX 8 20 0 -8
BITMAP
00
00
18
3C
44
44
3C
04
06
03
03
01
00
00
00
00
00
00
00
00
ENDCHAR
STARTCHAR 8A
ENCODING 138
SWIDTH 720 0
DWIDTH 8 0
BBX 8 20 0 -8
BITMAP
00
00
00
00
00
0C
18
18
18
00
00
00
00
00
00
00
00
00
00
00
ENDCHAR
STARTCHAR 8B
ENCODING 139
SWIDTH 720 0
DWIDTH 8 0
BBX 8 20 0 -8
BITMAP
00
00
00
00
00
00
00
00
FF
00
00
00
00
00
00
00
00
00
00
00
ENDCHAR
STARTCHAR 8C
ENCODING 140
SWIDTH 720 0
DWIDTH 8 0
BBX 8 20 0 -8
BITMAP
00
00
3C
42
40
60
10
0C
0C
00
0C
0C
00
00
00
00
00
00
00
00
ENDCHAR
STARTCHAR 8D
ENCODING 141
SWIDTH 720 0
DWIDTH 8 0
BBX 8 20 0 -8
BITMAP
00
01
3E
40
08
08
08
08
08
00
00
00
00
00
00
00
00
00
00
00
ENDCHAR
STARTCHAR 8E
ENCODING 142
SWIDTH 720 0
DWIDTH 8 0
BBX 8 20 0 -8
BITMAP
00
00
0C
10
3C
00
01
01
FE
00
00
00
00
00
00
00
00
00
00
00
ENDCHAR
STARTCHAR 8F
ENCODING 143
SWIDTH 720 0
DWIDTH 8 0
BBX 8 20 0 -8
BITMAP
00
00
00
00
00
00
00
00
0C
10
1C
20
00
00
00
00
00
00
00
00
ENDCHAR
STARTCHAR 90
ENCODING 144
SWIDTH 720 0
DWIDTH 8 0
BBX 8 20 0 -8
BITMAP
00
08
0C
08
08
08
08
08
08
00
00
00
00
00
00
00
00
00
00
00
ENDCHAR
STARTCHAR 91
ENCODING 145
SWIDTH 720 0
DWIDTH 8 0
BBX 8 20 0 -8
BITMAP
00
04
04
04
04
04
04
04
03
00
00
00
00
00
00
00
00
00
00
00
ENDCHAR
STARTCHAR 92
ENCODING 146
SWIDTH 720 0
DWIDTH 8 0
BBX 8 20 0 -8
BITMAP
00
00
00
00
00
40
81
81
7E
00
00
10
00
00
00
00
00
00
00
00
ENDCHAR
STARTCHAR 93
ENCODING 147
SWIDTH 720 0
DWIDTH 8 0
BBX 8 20 0 -8
BITMAP
00
00
00
00
00
00
01
01
FE
00
00
20
00
00
00
00
00
00
00
00
ENDCHAR
STARTCHAR 94
ENCODING 148
SWIDTH 720 0
DWIDTH 8 0
BBX 8 20 0 -8
BITMAP
00
00
00
00
00
40
81
81
7E
00
00
28
10
00
00
00
00
00
00
00
ENDCHAR
STARTCHAR 95
ENCODING 149
SWIDTH 720 0
DWIDTH 8 0
BBX 8 20 0 -8
BITMAP
00
00
00
00
00
00
01
01
FE
00
00
28
10
00
00
00
00
00
00
00
ENDCHAR
STARTCHAR 96
ENCODING 150
SWIDTH 720 0
DWIDTH 8 0
BBX 8 20 0 -8
BITMAP
00
00
00
14
00
40
81
81
7E
00
00
00
00
00
00
00
00
00
00
00
ENDCHAR
STARTCHAR 97
ENCODING 151
SWIDTH 720 0
DWIDTH 8 0
BBX 8 20 0 -8
BITMAP
00
00
00
14
00
00
01
01
FE
00
00
00
00
00
00
00
00
00
00
00
ENDCHAR
STARTCHAR 98
ENCODING 152
SWIDTH 720 0
DWIDTH 8 0
BBX 8 20 0 -8
BITMAP
00
00
08
14
00
40
81
81
7E
00
00
00
00
00
00
00
00
00
00
00
ENDCHAR
STARTCHAR 99
ENCODING 153
SWIDTH 720 0
DWIDTH 8 0
BBX 8 20 0 -8
BITMAP
00
00
08
14
00
00
01
01
FE
00
00
00
00
00
00
00
00
00
00
00
ENDCHAR
STARTCHAR 9A
ENCODING 154
SWIDTH 720 0
DWIDTH 8 0
BBX 8 20 0 -8
BITMAP
00
00
00
00
18
24
02
3F
40
80
88
80
41
3E
00
00
00
00
00
00
ENDCHAR
STARTCHAR 9B
ENCODING 155
SWIDTH 720 0
DWIDTH 8 0
BBX 8 20 0 -8
BITMAP
00
00
00
00
00
18
24
03
FC
00
00
08
00
00
00
00
00
00
00
00
ENDCHAR
STARTCHAR 9C
ENCODING 156
SWIDTH 720 0
DWIDTH 8 0
BBX 8 20 0 -8
BITMAP
00
00
00
00
18
24
02
3F
40
80
94
88
41
3E
00
00
00
00
00
00
ENDCHAR
STARTCHAR 9D
ENCODING 157
SWIDTH 720 0
DWIDTH 8 0
BBX 8 20 0 -8
BITMAP
00
00
00
00
00
18
24
03
FC
00
00
28
10
00
00
00
00
00
00
00
ENDCHAR
STARTCHAR 9E
ENCODING 158
SWIDTH 720 0
DWIDTH 8 0
BBX 8 20 0 -8
BITMAP
00
00
00
00
18
24
02
3F
40
80
80
80
41
3E
00
00
00
00
00
00
ENDCHAR
STARTCHAR 9F
ENCODING 159
SWIDTH 720 0
DWIDTH 8 0
BBX 8 20 0 -8
BITMAP
00
00
00
00
00
18
24
03
FC
00
00
00
00
00
00
00
00
00
00
00
ENDCHAR
STARTCHAR A0
ENCODING 160
SWIDTH 720 0
DWIDTH 8 0
BBX 8 20 0 -8
BITMAP
00
00
10
00
18
24
02
3F
40
80
80
80
41
3E
00
00
00
00
00
00
ENDCHAR
STARTCHAR A1
ENCODING 161
SWIDTH 720 0
DWIDTH 8 0
BBX 8 20 0 -8
BITMAP
00
00
08
00
00
18
24
03
FC
00
00
00
00
00
00
00
00
00
00
00
ENDCHAR
STARTCHAR A2
ENCODING 162
SWIDTH 720 0
DWIDTH 8 0
BBX 8 20 0 -8
BITMAP
00
00
00
00
04
02
01
21
3E
00
00
00
00
00
00
00
00
00
00
00
ENDCHAR
STARTCHAR A3
ENCODING 163
SWIDTH 720 0
DWIDTH 8 0
BBX 8 20 0 -8
BITMAP
00
08
00
00
04
02
01
21
3E
00
00
00
00
00
00
00
00
00
00
00
ENDCHAR
STARTCHAR A4
ENCODING 164
SWIDTH 720 0
DWIDTH 8 0
BBX 8 20 0 -8
BITMAP
00
00
00
00
00
00
00
01
01
01
02
24
18
00
00
00
00
00
00
00
ENDCHAR
STARTCHAR A5
ENCODING 165
SWIDTH 720 0
DWIDTH 8 0
BBX 8 20 0 -8
BITMAP
00
00
00
02
00
00
00
01
01
01
02
24
18
00
00
00
00
00
00
00
ENDCHAR
STARTCHAR A6
ENCODING 166
SWIDTH 720 0
DWIDTH 8 0
BBX 8 20 0 -8
BITMAP
00
00
02
05
00
00
00
01
01
01
02
24
18
00
00
00
00
00
00
00
ENDCHAR
STARTCHAR A7
ENCODING 167
SWIDTH 720 0
DWIDTH 8 0
BBX 8 20 0 -8
BITMAP
00
00
00
00
00
00
15
15
9A
88
88
88
70
00
00
00
00
00
00
00
ENDCHAR
STARTCHAR A8
ENCODING 168
SWIDTH 720 0
DWIDTH 8 0
BBX 8 20 0 -8
BITMAP
00
00
00
00
00
00
15
15
EA
00
00
00
00
00
00
00
00
00
00
00
ENDCHAR
STARTCHAR A9
ENCODING 169
SWIDTH 720 0
DWIDTH 8 0
BBX 8 20 0 -8
BITMAP
00
00
04
0A
00
00
15
15
9A
88
88
88
70
00
00
00
00
00
00
00
ENDCHAR
STARTCHAR AA
ENCODING 170
SWIDTH 720 0
DWIDTH 8 0
BBX 8 20 0 -8
BITMAP
00
04
0A
00
00
00
15
15
EA
00
00
00
00
00
00
00
00
00
00
00
ENDCHAR
STARTCHAR AB
ENCODING 171
SWIDTH 720 0
DWIDTH 8 0
BBX 8 20 0 -8
BITMAP
00
00
00
00
00
02
05
29
1E
88
88
88
70
00
00
00
00
00
00
00
ENDCHAR
STARTCHAR AC
ENCODING 172
SWIDTH 720 0
DWIDTH 8 0
BBX 8 20 0 -8
BITMAP
00
00
00
00
00
06
29
31
DE
00
00
00
00
00
00
00
00
00
00
00
ENDCHAR
STARTCHAR AD
ENCODING 173
SWIDTH 720 0
DWIDTH 8 0
BBX 8 20 0 -8
BITMAP
00
00
02
00
00
02
05
29
1E
88
88
88
70
00
00
00
00
00
00
00
ENDCHAR
STARTCHAR AE
ENCODING 174
SWIDTH 720 0
DWIDTH 8 0
BBX 8 20 0 -8
BITMAP
00
04
00
00
00
06
29
31
DE
00
00
00
00
00
00
00
00
00
00
00
ENDCHAR
STARTCHAR AF
ENCODING 175
SWIDTH 720 0
DWIDTH 8 0
BBX 8 20 0 -8
BITMAP
00
20
30
20
20
26
29
31
FE
00
00
00
00
00
00
00
00
00
00
00
ENDCHAR
STARTCHAR B0
ENCODING 176
SWIDTH 720 0
DWIDTH 8 0
BBX 8 20 0 -8
BITMAP
00
06
0C
18
30
00
00
00
FF
00
00
00
00
00
00
00
00
00
00
00
ENDCHAR
STARTCHAR B1
ENCODING 177
SWIDTH 720 0
DWIDTH 8 0
BBX 8 20 0 -8
BITMAP
00
00
00
00
00
00
00
00
FF
00
00
06
0C
18
30
00
00
00
00
00
ENDCHAR
STARTCHAR B2
ENCODING 178
SWIDTH 720 0
DWIDTH 8 0
BBX 8 20 0 -8
BITMAP
1C
1C
0C
18
30
00
00
00
FF
00
00
00
00
00
00
00
00
00
00
00
ENDCHAR
STARTCHAR B3
ENCODING 179
SWIDTH 720 0
DWIDTH 8 0
BBX 8 20 0 -8
BITMAP
0C
18
32
66
0C
18
10
00
FF
00
00
00
00
00
00
00
00
00
00
00
ENDCHAR
STARTCHAR B4
ENCODING 180
SWIDTH 720 0
DWIDTH 8 0
BBX 8 20 0 -8
BITMAP
00
01
29
49
76
00
00
00
FF
00
00
00
00
00
00
00
00
00
00
00
ENDCHAR
STARTCHAR B5
ENCODING 181
SWIDTH 720 0
DWIDTH 8 0
BBX 8 20 0 -8
BITMAP
00
00
00
36
36
7F
36
36
36
7F
36
36
00
00
00
00
00
00
00
00
ENDCHAR
STARTCHAR B6
ENCODING 182
SWIDTH 720 0
DWIDTH 8 0
BBX 8 20 0 -8
BITMAP
0C
0C
3E
63
61
60
3E
03
43
63
3E
0C
0C
00
00
00
00
00
00
00
ENDCHAR
STARTCHAR B7
ENCODING 183
SWIDTH 720 0
DWIDTH 8 0
BBX 8 20 0 -8
BITMAP
00
00
00
00
61
63
06
0C
18
30
63
43
00
00
00
00
00
00
00
00
ENDCHAR
STARTCHAR B8
ENCODING 184
SWIDTH 720 0
DWIDTH 8 0
BBX 8 20 0 -8
BITMAP
00
00
1C
36
36
1C
3B
6E
66
66
66
3B
00
00
00
00
00
00
00
00
ENDCHAR
STARTCHAR B9
ENCODING 185
SWIDTH 720 0
DWIDTH 8 0
BBX 8 20 0 -8
BITMAP
00
10
08
18
18
00
00
00
00
00
00
00
00
00
00
00
00
00
00
00
ENDCHAR
STARTCHAR BA
ENCODING 186
SWIDTH 720 0
DWIDTH 8 0
BBX 8 20 0 -8
BITMAP
00
18
18
18
18
18
00
00
FF
00
00
00
00
00
00
00
00
00
00
00
ENDCHAR
STARTCHAR BB
ENCODING 187
SWIDTH 720 0
DWIDTH 8 0
BBX 8 20 0 -8
BITMAP
00
0C
10
1A
0C
30
00
00
FF
00
00
00
00
00
00
00
00
00
00
00
ENDCHAR
STARTCHAR BC
ENCODING 188
SWIDTH 720 0
DWIDTH 8 0
BBX 8 20 0 -8
BITMAP
00
00
00
00
00
00
00
0C
18
30
60
40
00
00
00
00
00
00
00
00
ENDCHAR
STARTCHAR BD
ENCODING 189
SWIDTH 720 0
DWIDTH 8 0
BBX 8 20 0 -8
BITMAP
00
00
0C
18
30
30
30
30
30
30
18
0C
00
00
00
00
00
00
00
00
ENDCHAR
STARTCHAR BE
ENCODING 190
SWIDTH 720 0
DWIDTH 8 0
BBX 8 20 0 -8
BITMAP
00
00
30
18
0C
0C
0C
0C
0C
0C
18
30
00
00
00
00
00
00
00
00
ENDCHAR
STARTCHAR BF
ENCODING 191
SWIDTH 720 0
DWIDTH 8 0
BBX 8 20 0 -8
BITMAP
00
36
00
00
0C
12
11
11
0E
00
00
00
00
00
00
00
00
00
00
00
ENDCHAR
STARTCHAR C0
ENCODING 192
SWIDTH 720 0
DWIDTH 8 0
BBX 8 20 0 -8
BITMAP
00
00
00
00
00
12
24
24
24
24
12
00
00
00
00
00
00
00
00
00
ENDCHAR
STARTCHAR C1
ENCODING 193
SWIDTH 720 0
DWIDTH 8 0
BBX 8 20 0 -8
BITMAP
00
10
18
10
10
16
59
71
3E
00
00
00
00
00
00
00
00
00
00
00
ENDCHAR
STARTCHAR C2
ENCODING 194
SWIDTH 720 0
DWIDTH 8 0
BBX 8 20 0 -8
BITMAP
00
10
12
10
10
16
59
71
3E
00
00
00
00
00
00
00
00
00
00
00
ENDCHAR
STARTCHAR C3
ENCODING 195
SWIDTH 720 0
DWIDTH 8 0
BBX 8 20 0 -8
BITMAP
00
00
00
00
00
48
24
24
24
24
48
00
00
00
00
00
00
00
00
00
ENDCHAR
STARTCHAR C4
ENCODING 196
SWIDTH 720 0
DWIDTH 8 0
BBX 8 20 0 -8
BITMAP
00
1C
22
22
1C
00
00
00
FF
00
00
00
00
00
00
00
00
00
00
00
ENDCHAR
STARTCHAR C5
ENCODING 197
SWIDTH 720 0
DWIDTH 8 0
BBX 8 20 0 -8
BITMAP
00
00
00
00
00
00
00
3E
00
00
00
00
00
00
00
00
00
00
00
00
ENDCHAR
STARTCHAR C6
ENCODING 198
SWIDTH 720 0
DWIDTH 8 0
BBX 8 20 0 -8
BITMAP
00
00
00
00
00
00
00
00
00
00
18
18
00
00
00
00
00
00
00
00
ENDCHAR
STARTCHAR C7
ENCODING 199
SWIDTH 720 0
DWIDTH 8 0
BBX 8 20 0 -8
BITMAP
00
00
00
00
01
03
06
0C
18
30
60
40
00
00
00
00
00
00
00
00
ENDCHAR
STARTCHAR C8
ENCODING 200
SWIDTH 720 0
DWIDTH 8 0
BBX 8 20 0 -8
BITMAP
00
00
00
00
00
66
3C
FF
3C
66
00
00
00
00
00
00
00
00
00
00
ENDCHAR
STARTCHAR C9
ENCODING 201
SWIDTH 720 0
DWIDTH 8 0
BBX 8 20 0 -8
BITMAP
00
00
3B
6E
00
00
00
00
00
00
00
00
00
00
00
00
00
00
00
00
ENDCHAR
STARTCHAR CA
ENCODING 202
SWIDTH 720 0
DWIDTH 8 0
BBX 8 20 0 -8
BITMAP
00
00
00
00
18
18
00
00
00
18
18
00
00
00
00
00
00
00
00
00
ENDCHAR
STARTCHAR CB
ENCODING 203
SWIDTH 720 0
DWIDTH 8 0
BBX 8 20 0 -8
BITMAP
00
00
00
0C
18
18
00
00
00
18
18
00
00
00
00
00
00
00
00
00
ENDCHAR
STARTCHAR CC
ENCODING 204
SWIDTH 720 0
DWIDTH 8 0
BBX 8 20 0 -8
BITMAP
00
00
00
06
0C
18
30
60
30
18
0C
06
00
00
00
00
00
00
00
00
ENDCHAR
STARTCHAR CD
ENCODING 205
SWIDTH 720 0
DWIDTH 8 0
BBX 8 20 0 -8
BITMAP
00
00
00
00
00
18
18
FF
18
18
00
00
00
00
00
00
00
00
00
00
ENDCHAR
STARTCHAR CE
ENCODING 206
SWIDTH 720 0
DWIDTH 8 0
BBX 8 20 0 -8
BITMAP
00
00
00
00
00
7F
00
00
7F
00
00
00
00
00
00
00
00
00
00
00
ENDCHAR
STARTCHAR CF
ENCODING 207
SWIDTH 720 0
DWIDTH 8 0
BBX 8 20 0 -8
BITMAP
00
00
00
60
30
18
0C
06
0C
18
30
60
00
00
00
00
00
00
00
00
ENDCHAR
STARTCHAR D0
ENCODING 208
SWIDTH 720 0
DWIDTH 8 0
BBX 8 20 0 -8
BITMAP
00
00
00
3E
63
63
6F
6F
6E
60
3E
00
00
00
00
00
00
00
00
00
ENDCHAR
STARTCHAR D1
ENCODING 209
SWIDTH 720 0
DWIDTH 8 0
BBX 8 20 0 -8
BITMAP
00
00
3E
30
30
30
30
30
30
30
30
3E
00
00
00
00
00
00
00
00
ENDCHAR
STARTCHAR D2
ENCODING 210
SWIDTH 720 0
DWIDTH 8 0
BBX 8 20 0 -8
BITMAP
00
00
00
40
60
70
38
1C
0E
07
03
01
00
00
00
00
00
00
00
00
ENDCHAR
STARTCHAR D3
ENCODING 211
SWIDTH 720 0
DWIDTH 8 0
BBX 8 20 0 -8
BITMAP
00
00
3E
06
06
06
06
06
06
06
06
3E
00
00
00
00
00
00
00
00
ENDCHAR
STARTCHAR D4
ENCODING 212
SWIDTH 720 0
DWIDTH 8 0
BBX 8 20 0 -8
BITMAP
00
00
00
00
00
42
24
18
24
42
00
00
00
00
00
00
00
00
00
00
ENDCHAR
STARTCHAR D5-empty
ENCODING 213
SWIDTH 720 0
DWIDTH 8 0
BBX 8 20 0 -8
BITMAP
00
00
00
00
00
00
00
00
00
00
00
00
00
00
00
00
00
00
00
00
ENDCHAR
STARTCHAR D6
ENCODING 214
SWIDTH 720 0
DWIDTH 8 0
BBX 8 20 0 -8
BITMAP
00
18
18
10
08
00
00
00
00
00
00
00
00
00
00
00
00
00
00
00
ENDCHAR
STARTCHAR D7
ENCODING 215
SWIDTH 720 0
DWIDTH 8 0
BBX 8 20 0 -8
BITMAP
00
00
0E
18
18
18
70
70
18
18
18
0E
00
00
00
00
00
00
00
00
ENDCHAR
STARTCHAR D8
ENCODING 216
SWIDTH 720 0
DWIDTH 8 0
BBX 8 20 0 -8
BITMAP
00
00
18
18
18
18
00
18
18
18
18
00
00
00
00
00
00
00
00
00
ENDCHAR
STARTCHAR D9
ENCODING 217
SWIDTH 720 0
DWIDTH 8 0
BBX 8 20 0 -8
BITMAP
00
00
00
00
00
00
00
00
FF
00
0C
18
32
66
0C
18
00
00
00
00
ENDCHAR
STARTCHAR DA-reserved
ENCODING 218
SWIDTH 720 0
DWIDTH 8 0
BBX 8 20 0 -8
BITMAP
00
00
00
00
00
00
00
00
00
00
00
00
00
00
00
00
00
00
00
00
ENDCHAR
STARTCHAR DB
ENCODING 219
SWIDTH 720 0
DWIDTH 8 0
BBX 8 20 0 -8
BITMAP
07
07
33
52
1C
00
00
00
FF
00
00
00
00
00
00
00
00
00
00
00
ENDCHAR
STARTCHAR DC
ENCODING 220
SWIDTH 720 0
DWIDTH 8 0
BBX 8 20 0 -8
BITMAP
00
01
3E
40
08
08
08
08
07
00
00
00
00
00
00
00
00
00
00
00
ENDCHAR
STARTCHAR DD
ENCODING 221
SWIDTH 720 0
DWIDTH 8 0
BBX 8 20 0 -8
BITMAP
00
00
18
3C
3C
3C
18
18
18
00
18
18
00
00
00
00
00
00
00
00
ENDCHAR
STARTCHAR DE
ENCODING 222
SWIDTH 720 0
DWIDTH 8 0
BBX 8 20 0 -8
BITMAP
00
00
70
18
18
18
0E
0E
18
18
18
70
00
00
00
00
00
00
00
00
ENDCHAR
STARTCHAR DF-empty
ENCODING 223
SWIDTH 720 0
DWIDTH 8 0
BBX 8 20 0 -8
BITMAP
00
00
00
00
00
00
00
00
00
00
00
00
00
00
00
00
00
00
00
00
ENDCHAR
STARTCHAR E0
ENCODING 224
SWIDTH 720 0
DWIDTH 8 0
BBX 8 20 0 -8
BITMAP
00
20
34
20
20
26
29
31
FE
00
00
00
00
00
00
00
00
00
00
00
ENDCHAR
STARTCHAR E1
ENCODING 225
SWIDTH 720 0
DWIDTH 8 0
BBX 8 20 0 -8
BITMAP
00
00
00
00
06
09
08
1F
20
40
40
40
21
1E
00
00
00
00
00
00
ENDCHAR
STARTCHAR E2
ENCODING 226
SWIDTH 720 0
DWIDTH 8 0
BBX 8 20 0 -8
BITMAP
00
00
00
00
0C
1E
0C
12
21
40
40
40
21
1E
00
00
00
00
00
00
ENDCHAR
STARTCHAR E3
ENCODING 227
SWIDTH 720 0
DWIDTH 8 0
BBX 8 20 0 -8
BITMAP
00
00
00
00
00
1C
3C
18
E7
00
00
00
00
00
00
00
00
00
00
00
ENDCHAR
STARTCHAR E4
ENCODING 228
SWIDTH 720 0
DWIDTH 8 0
BBX 8 20 0 -8
BITMAP
00
00
00
00
00
06
09
08
FF
00
00
00
00
00
00
00
00
00
00
00
ENDCHAR
STARTCHAR E5
ENCODING 229
SWIDTH 720 0
DWIDTH 8 0
BBX 8 20 0 -8
BITMAP
00
04
00
00
06
09
08
1F
20
40
40
40
21
1E
00
00
00
00
00
00
ENDCHAR
STARTCHAR E6
ENCODING 230
SWIDTH 720 0
DWIDTH 8 0
BBX 8 20 0 -8
BITMAP
00
04
00
00
0E
1E
0C
12
21
40
40
40
21
1E
00
00
00
00
00
00
ENDCHAR
STARTCHAR E7
ENCODING 231
SWIDTH 720 0
DWIDTH 8 0
BBX 8 20 0 -8
BITMAP
00
00
08
00
00
1C
3C
18
E7
00
00
00
00
00
00
00
00
00
00
00
ENDCHAR
STARTCHAR E8
ENCODING 232
SWIDTH 720 0
DWIDTH 8 0
BBX 8 20 0 -8
BITMAP
00
04
00
00
00
06
09
08
FF
00
00
00
00
00
00
00
00
00
00
00
ENDCHAR
STARTCHAR E9
ENCODING 233
SWIDTH 720 0
DWIDTH 8 0
BBX 8 20 0 -8
BITMAP
00
04
00
00
06
49
89
87
7E
00
00
00
00
00
00
00
00
00
00
00
ENDCHAR
STARTCHAR EA
ENCODING 234
SWIDTH 720 0
DWIDTH 8 0
BBX 8 20 0 -8
BITMAP
00
04
00
00
06
09
09
07
FE
00
00
00
00
00
00
00
00
00
00
00
ENDCHAR
STARTCHAR EB
ENCODING 235
SWIDTH 720 0
DWIDTH 8 0
BBX 8 20 0 -8
BITMAP
00
00
0A
00
00
02
05
45
83
81
81
42
3C
00
00
00
00
00
00
00
ENDCHAR
STARTCHAR EC
ENCODING 236
SWIDTH 720 0
DWIDTH 8 0
BBX 8 20 0 -8
BITMAP
00
0A
00
00
06
09
09
07
FE
00
00
00
00
00
00
00
00
00
00
00
ENDCHAR
STARTCHAR ED
ENCODING 237
SWIDTH 720 0
DWIDTH 8 0
BBX 8 20 0 -8
BITMAP
00
03
04
08
08
06
41
81
7E
00
00
00
00
00
00
00
00
00
00
00
ENDCHAR
STARTCHAR EE
ENCODING 238
SWIDTH 720 0
DWIDTH 8 0
BBX 8 20 0 -8
BITMAP
00
03
04
08
08
06
01
01
FE
00
00
00
00
00
00
00
00
00
00
00
ENDCHAR
STARTCHAR EF
ENCODING 239
SWIDTH 720 0
DWIDTH 8 0
BBX 8 20 0 -8
BITMAP
08
13
24
08
08
06
41
81
7E
00
00
00
00
00
00
00
00
00
00
00
ENDCHAR
STARTCHAR F0
ENCODING 240
SWIDTH 720 0
DWIDTH 8 0
BBX 8 20 0 -8
BITMAP
08
13
24
08
08
06
01
01
FE
00
00
00
00
00
00
00
00
00
00
00
ENDCHAR
STARTCHAR F1
ENCODING 241
SWIDTH 720 0
DWIDTH 8 0
BBX 8 20 0 -8
BITMAP
00
01
03
01
01
01
01
41
81
81
81
42
3C
00
00
00
00
00
00
00
ENDCHAR
STARTCHAR F2
ENCODING 242
SWIDTH 720 0
DWIDTH 8 0
BBX 8 20 0 -8
BITMAP
00
21
21
11
11
09
09
07
1E
00
00
00
00
00
00
00
00
00
00
00
ENDCHAR
STARTCHAR F3
ENCODING 243
SWIDTH 720 0
DWIDTH 8 0
BBX 8 20 0 -8
BITMAP
00
01
03
01
01
01
01
01
FE
00
00
00
00
00
00
00
00
00
00
00
ENDCHAR
STARTCHAR F4
ENCODING 244
SWIDTH 720 0
DWIDTH 8 0
BBX 8 20 0 -8
BITMAP
00
00
00
00
00
00
06
09
3E
40
40
40
40
40
00
00
00
00
00
00
ENDCHAR
STARTCHAR F5
ENCODING 245
SWIDTH 720 0
DWIDTH 8 0
BBX 8 20 0 -8
BITMAP
00
00
00
00
00
06
09
09
F6
00
00
00
00
00
00
00
00
00
00
00
ENDCHAR
STARTCHAR F6
ENCODING 246
SWIDTH 720 0
DWIDTH 8 0
BBX 8 20 0 -8
BITMAP
00
00
00
00
00
08
00
41
81
81
81
42
3C
00
00
00
00
00
00
00
ENDCHAR
STARTCHAR F7
ENCODING 247
SWIDTH 720 0
DWIDTH 8 0
BBX 8 20 0 -8
BITMAP
00
00
00
08
00
00
01
01
FE
00
00
00
00
00
00
00
00
00
00
00
ENDCHAR
STARTCHAR F8
ENCODING 248
SWIDTH 720 0
DWIDTH 8 0
BBX 8 20 0 -8
BITMAP
00
00
00
00
00
06
09
09
07
01
02
44
38
00
00
00
00
00
00
00
ENDCHAR
STARTCHAR F9
ENCODING 249
SWIDTH 720 0
DWIDTH 8 0
BBX 8 20 0 -8
BITMAP
00
00
00
00
0C
12
11
11
0E
00
00
00
00
00
00
00
00
00
00
00
ENDCHAR
STARTCHAR FA
ENCODING 250
SWIDTH 720 0
DWIDTH 8 0
BBX 8 20 0 -8
BITMAP
00
00
00
00
00
1C
24
28
F3
24
14
0C
00
00
00
00
00
00
00
00
ENDCHAR
STARTCHAR FB
ENCODING 251
SWIDTH 720 0
DWIDTH 8 0
BBX 8 20 0 -8
BITMAP
00
00
00
08
1C
26
25
19
EE
00
00
00
00
00
00
00
00
00
00
00
ENDCHAR
STARTCHAR FC
ENCODING 252
SWIDTH 720 0
DWIDTH 8 0
BBX 8 20 0 -8
BITMAP
00
00
00
00
00
00
00
00
07
48
8C
82
82
7C
00
00
00
00
00
00
ENDCHAR
STARTCHAR FD
ENCODING 253
SWIDTH 720 0
DWIDTH 8 0
BBX 8 20 0 -8
BITMAP
00
00
00
00
00
03
44
88
8E
81
81
7E
00
00
00
00
00
00
00
00
ENDCHAR
STARTCHAR FE
ENCODING 254
SWIDTH 720 0
DWIDTH 8 0
BBX 8 20 0 -8
BITMAP
00
00
00
00
00
00
01
01
FE
00
00
28
00
00
00
00
00
00
00
00
ENDCHAR
STARTCHAR FF-persianspace
ENCODING 255
SWIDTH 720 0
DWIDTH 8 0
BBX 8 20 0 -8
BITMAP
00
00
00
00
00
00
00
00
00
00
00
00
00
00
00
00
00
00
00
00
ENDCHAR
ENDFONT
